<?xml version="1.0" encoding="UTF-8" standalone="no"?>
<!-- Created with Inkscape (http://www.inkscape.org/) -->

<svg
   xmlns:dc="http://purl.org/dc/elements/1.1/"
   xmlns:cc="http://creativecommons.org/ns#"
   xmlns:rdf="http://www.w3.org/1999/02/22-rdf-syntax-ns#"
   xmlns:svg="http://www.w3.org/2000/svg"
   xmlns="http://www.w3.org/2000/svg"
   xmlns:sodipodi="http://sodipodi.sourceforge.net/DTD/sodipodi-0.dtd"
   xmlns:inkscape="http://www.inkscape.org/namespaces/inkscape"
   id="svg3009"
   version="1.1"
   inkscape:version="0.47+devel r9433"
   width="230"
   height="85"
   sodipodi:docname="chpclogo.svg">
  <metadata
     id="metadata3015">
    <rdf:RDF>
      <cc:Work
         rdf:about="">
        <dc:format>image/svg+xml</dc:format>
        <dc:type
           rdf:resource="http://purl.org/dc/dcmitype/StillImage" />
        <dc:title />
      </cc:Work>
    </rdf:RDF>
  </metadata>
  <defs
     id="defs3013" />
  <sodipodi:namedview
     pagecolor="#ffffff"
     bordercolor="#666666"
     borderopacity="1"
     objecttolerance="10"
     gridtolerance="10"
     guidetolerance="10"
     inkscape:pageopacity="0"
     inkscape:pageshadow="2"
     inkscape:window-width="1130"
     inkscape:window-height="670"
     id="namedview3011"
     showgrid="false"
     inkscape:zoom="4.6747758"
     inkscape:cx="80.023583"
     inkscape:cy="43.477911"
     inkscape:window-x="18"
     inkscape:window-y="0"
     inkscape:window-maximized="0"
     inkscape:current-layer="svg3009" />
  <path
     style="fill:#14346d;fill-opacity:1"
     d="m 120.85343,78.699941 c -8.37671,0.479038 -7.44892,-11.00055 -3.98486,-10.722115 0.62723,-7.935153 0.24297,-18.875702 -0.61269,-23.816059 -3.16667,0.203197 -7.4029,-0.02144 -10.56957,0.181762 -0.57716,4.725699 -0.56111,20.816047 -0.31437,34.322937 -4.30183,-0.557486 -8.757803,0.09191 -8.757803,0.09191 0,-6.309245 0.641742,-28.234213 0.641742,-34.543458 -9.166667,0.18548 -17.691591,-0.270782 -26.858258,-0.0853 -0.183595,10.5 -0.367191,23.353054 -0.550786,33.853054 C 59.565676,77.880116 36.851019,81.407315 23.493994,71.541492 15.695053,66.930716 10.51865,57.339346 9.091826,48.569736 8.3543103,39.411824 8.5764563,29.582979 14.360855,21.916933 20.672822,13.415357 32.556428,6.7468307 41.58502,7.3542083 c 3.230421,-0.1524318 11.808691,-1.5883474 9.691262,3.8209847 1.791205,6.648173 -6.430215,2.530932 -16.359498,5.385449 -11.605164,3.878505 -19.474016,17.033711 -16.957193,29.437281 1.165462,9.904979 10.167677,19.168995 19.580112,21.991265 7.364537,2.404598 14.884889,2.190945 22.413816,1.458808 0.173043,-5.894808 -0.08174,-19.490521 0.0913,-25.385329 -9.750551,1.859651 -8.652441,-10.24871 -0.02864,-9.700826 -0.183553,-8.402075 0.551417,-19.921308 0.183162,-24.011403 -9.10182,-10.28989317 16.946155,-14.1335591 9.661271,0.0818 -0.739197,7.836902 -0.132594,18.050645 -0.02454,25.927454 4.444885,0.07132 10.053129,-0.314639 14.710289,0.19509 4.307812,0 8.615625,-0.213914 12.923437,-0.213914 0,-9.666667 0,-19.333333 0,-29.0000001 3.000002,0 6.000002,0 9.000002,0 0,9.6666671 0,19.3333331 0,29.0000001 3.33333,0 6.66667,0 10,0 0,-9.666667 0,-19.333333 0,-29.0000001 12.90853,0.4445318 25.93172,-0.9430847 38.75936,0.8473746 13.45089,3.7317445 17.95306,23.4047535 7.23546,32.5113995 -7.0802,6.636014 -18.00547,3.875468 -20.05785,4.050456 -15.93116,9.973005 -16.61534,-18.720191 -0.44549,-9.282075 1.56367,-0.128374 15.33498,2.362421 17.32118,-7.265777 1.28397,-7.206146 -6.09169,-13.208946 -12.93487,-11.79215 -6.79259,0.143851 -13.58519,0.287701 -20.37779,0.431552 -0.17874,16.265253 -0.14358,34.883561 -0.32232,51.148814 5.35181,0.05157 4.38366,12.17091 -4.79405,10.709479 z m 88.85609,-2.673292 c -5.46152,0.21236 -12.02914,1.242372 -23.11365,-3.645948 -10.47316,-6.275723 -18.42114,-18.949048 -17.553,-31.079592 -0.75393,-17.303115 14.33677,-32.8591533 31.40357,-33.7319432 3.53296,0.020892 18.18277,-1.816107 17.64842,5.3194692 0.55561,7.143798 -10.42697,1.451925 -20.62497,4.233986 -15.74771,3.454613 -23.88682,24.249892 -14.68875,38.050156 3.9451,8.33175 16.79438,15.606283 26.47725,12.137759 -1.45129,-3.718687 11.80085,-5.962857 11.8925,3.630375 1.46814,4.93747 -7.9154,10.685274 -11.44137,5.085738 z"
     id="path3038"
     inkscape:connector-curvature="0"
     sodipodi:nodetypes="ccccccccccccccccccccccccccccccccccccccccccccccccc" />
</svg>
